<svg xmlns="http://www.w3.org/2000/svg" viewBox="0 -0.5 32 32" shape-rendering="crispEdges">
<metadata>Made with Pixels to Svg https://codepen.io/shshaw/pen/XbxvNj</metadata>
<path stroke="#808080" d="M13 0h6M19 1h1M16 8h1M14 10h1M16 11h1M16 13h1M15 14h1M16 15h1M16 16h1M15 17h1M14 25h3M14 27h3M14 29h3" />
<path stroke="#ffff00" d="M5 1h1M27 1h1M12 2h1M14 2h1M16 2h1M18 2h2M2 3h1M11 3h1M13 3h1M15 3h1M17 3h1M19 3h2M30 3h1M4 4h1M10 4h1M12 4h1M14 4h1M16 4h1M18 4h1M20 4h2M28 4h1M9 5h1M11 5h1M17 5h1M19 5h4M8 6h1M10 6h1M18 6h1M20 6h3M2 7h1M9 7h1M17 7h1M19 7h1M21 7h3M30 7h1M8 8h1M10 8h1M20 8h4M9 9h1M19 9h5M8 10h1M10 10h1M16 10h1M18 10h1M20 10h4M9 11h1M11 11h1M13 11h1M15 11h1M17 11h1M19 11h5M10 12h1M12 12h1M14 12h1M16 12h1M18 12h6M9 13h1M11 13h1M13 13h1M15 13h1M17 13h7M10 14h3M14 14h1M16 14h7M11 15h3M15 15h1M17 15h5M2 16h1M4 16h1M11 16h5M18 16h4M28 16h1M30 16h1M12 17h3M16 17h5M13 18h3M17 18h3M5 19h1M14 19h2M17 19h2M26 19h1M3 20h1M14 20h2M17 20h2M28 20h1M1 21h1M7 21h1M15 21h1M17 21h1M24 21h1M30 21h1M15 22h1M17 22h1M5 23h1M15 23h1M17 23h1M26 23h1M15 24h1M17 24h1" />
<path stroke="#808000" d="M11 1h2M10 2h1M9 3h1M8 4h1M7 5h1M7 6h1M6 7h1M6 8h1M6 9h1M6 10h1M6 11h1M6 12h1M6 13h1M7 14h1M8 15h1M8 16h1M9 17h1M10 18h1M11 19h1M11 20h1M12 21h1M12 22h1M12 23h1M12 24h1M12 25h1M12 26h1M12 27h1M12 28h1" />
<path stroke="#ffffff" d="M13 1h6M11 2h1M13 2h1M15 2h1M17 2h1M20 2h1M10 3h1M12 3h1M14 3h1M16 3h1M18 3h1M21 3h1M9 4h1M11 4h1M13 4h1M15 4h1M17 4h1M19 4h1M22 4h1M8 5h1M10 5h1M12 5h5M18 5h1M23 5h1M9 6h1M11 6h7M19 6h1M23 6h1M7 7h2M10 7h7M18 7h1M20 7h1M24 7h1M7 8h1M9 8h1M11 8h5M17 8h3M24 8h1M7 9h2M10 9h9M24 9h1M7 10h1M9 10h1M11 10h3M15 10h1M17 10h1M19 10h1M24 10h1M7 11h2M10 11h1M12 11h1M14 11h1M18 11h1M24 11h1M7 12h3M11 12h1M13 12h1M15 12h1M17 12h1M24 12h1M7 13h2M10 13h1M12 13h1M14 13h1M24 13h1M8 14h2M13 14h1M23 14h1M9 15h2M14 15h1M22 15h1M9 16h2M17 16h1M22 16h1M10 17h2M21 17h1M11 18h2M16 18h1M20 18h1M12 19h2M16 19h1M19 19h1M12 20h2M16 20h1M19 20h1M13 21h2M16 21h1M18 21h1M13 22h2M16 22h1M18 22h1M13 23h2M16 23h1M18 23h1M13 24h2M16 24h1M13 25h1M18 25h1M13 26h5M13 27h1M18 27h1M13 28h5M13 29h1M18 29h1M14 30h4" />
<path stroke="#000000" d="M20 1h1M21 2h1M22 3h1M23 4h1M24 5h1M24 6h1M25 7h1M25 8h1M25 9h1M25 10h1M25 11h1M25 12h1M25 13h1M24 14h1M23 15h1M23 16h1M22 17h1M21 18h1M20 19h1M20 20h1M19 21h1M19 22h1M19 23h1M18 24h2M17 25h1M19 25h1M18 26h2M17 27h1M19 27h1M18 28h2M12 29h1M17 29h1M19 29h1M13 30h1M18 30h1M14 31h4" />
</svg>
